ply
format ascii 1.0
element vertex 402
property double x
property double y
property double z
element face 800
property list int int vertex_index
end_header
-1.14461 0.348289 0.821948
-1.13018 0.804388 1.26372
-1.29148 1.58495 1.51498
-0.389971 2.93471 2.67012
1.26539 0.325109 -0.014263
1.24432 0.569741 0.680281
0.949137 0.239988 1.24238
1.28681 1.01372 0.965487
0.997671 0.714594 1.46985
1.3836 1.80876 1.02587
1.25624 1.37225 1.34042
1.01522 2.53592 2.28015
1.65937 -4.02769 1.6147
2.44317 -0.179462 -0.31526
1.9795 0.526511 -1.05294
2.62674 -0.141303 -1.17623
3.57252 -2.19329 0.073111
3.38411 -3.15746 0.609178
2.83755 -4.57595 0.958111
2.64726 -5.00696 1.03606
4.41342 -1.36602 -1.81725
3.11579 -1.32048 -2.78117
0.681818 -1.56571 -2.71684
1.35017 -1.67514 -2.53973
0.44787 -2.51034 -2.13596
0.342392 -3.01133 -2.03468
0.865371 -3.1137 -1.90068
2.21345 -3.53735 -1.17981
2.09688 -3.93888 -1.01188
1.03139 -5.10085 -1.80622
1.59625 -5.43677 -0.777835
-1.23217 -4.12133 1.91564
-2.24666 -3.43634 1.32377
-1.65937 -4.02769 1.6147
-1.65283 -4.68421 1.68483
-2.05093 -1.83166 0.82876
-2.62674 -0.141303 -1.17623
-3.59493 -1.30943 -0.426668
-3.56163 -1.80325 -0.127527
-2.83755 -4.57595 0.958111
-2.64726 -5.00696 1.03606
-2.63671 -2.71934 0.706883
-4.33061 -1.41192 -0.776805
-4.12501 -3.39416 -0.000466
-0.58714 -4.5504 1.7207
-4.50954 -2.16501 -0.978357
-4.64434 -1.74196 -1.08547
-4.07458 -2.73713 -1.28481
-3.94058 -3.14108 -1.09184
-3.33706 -4.54269 -0.391358
-1.71649 0.726429 -1.38844
-2.20873 -0.084916 -2.25201
-1.64363 0.058334 -2.43844
-0.948287 0.148704 -2.63546
-2.49222 -5.23389 -0.221049
-1.35017 -1.67514 -2.53973
-1.84782 -1.74594 -2.45708
-0.44787 -2.51034 -2.13596
-0.865371 -3.1137 -1.90068
-0.730909 -3.56852 -1.8981
-0.090155 -3.81937 -2.04535
-0.635255 -4.23469 -1.94546
-0.595195 -5.03812 -2.07909
-1.79345 -6.03088 -0.258928
1.39474 -0.413036 0.760716
1.86334 -0.977168 0.91409
0 -3.57208 1.80514
0 -4.13847 1.78681
-0.271754 -4.84092 1.83781
0.886282 -2.90006 1.864
-0.69244 -3.06073 1.99367
1.41798 4.55433 2.44709
2.35455 3.70565 1.67022
1.60139 4.89572 0.83814
2.15045 1.47684 -0.584277
2.64345 1.92542 -0.01895
1.87691 2.72828 -1.16657
1.78215 3.54208 -0.994194
0 5.53068 0.336697
-2.314 1.93712 1.04395
-0.273753 4.90292 2.63511
-1.51174 4.93809 1.52149
-2.26532 2.57683 -0.675925
-2.15045 1.47684 -0.584277
-2.64345 1.92542 -0.01895
-1.21881 0.739126 -0.176778
-1.25159 0.5347375 0.2883155
-1.042725 1.098729 1.68173
-0.7776295 -0.08749 1.259835
-1.317175 2.85277 1.781525
-0.7960365 2.68843 2.58057
-0.507818 2.25054 2.63731
-0.7098345 3.426685 2.542985
-0.095832 3.37701 2.70961
-0.944123 2.11676 2.36188
-1.631465 1.58652 0.1831065
-1.57619 1.499225 -0.14078
1.082405 0.0457945 0.3287265
1.0202065 0.0646215 0.8064245
1.394645 1.1383 0.2923025
0.682624 -0.078751 1.4041
0.145126 0.4782225 2.025765
0.6200645 0.4759815 1.76748
0.80413 0.91584 1.88053
0.148086 0.793243 2.308985
1.317175 2.85277 1.781525
1.169135 3.200025 2.260485
0.7018995 2.83823 2.65142
0.7098345 3.426685 2.542985
0.195958 2.821505 2.73473
0.479755 1.6795 2.150395
1.21364 -3.04193 1.80493
1.05454 -3.82418 2.013355
0.8307315 -4.250895 2.045535
2.41274 -3.421345 1.31357
1.57855 -3.581255 1.566265
1.534085 -4.470075 1.68962
1.56565 -5.258355 1.638585
1.880645 -1.93371 0.971125
2.45263 -1.200469 0.327108
2.682795 -2.162535 0.727766
2.52657 -1.618065 0.447827
1.86006 -2.394225 1.07872
2.408375 -4.03812 1.514035
2.293355 0.219994 -1.19727
2.765785 -0.357205 -0.6445
2.996855 -1.049914 -0.2123235
3.24774 -0.603226 -1.158825
2.926715 -1.879405 0.218677
1.94504 -2.881275 1.08431
2.130935 -4.555145 1.32973
1.88929 -5.03111 1.391205
2.990235 -3.60583 0.8983245
2.066875 -5.51347 1.26623
2.338355 -2.50946 0.931029
3.906055 -1.0195675 -1.014223
3.95955 -1.39746 -0.556703
3.904985 -1.853075 -0.2451935
4.62984 -1.51029 -0.915481
3.838815 -2.579335 0.1060725
4.080365 -3.03631 -0.033081
4.511565 -2.162315 -0.3241565
4.07011 -3.7768 -0.0799165
4.52839 -2.65178 -0.2170125
3.638715 -4.172245 0.456968
3.43841 -4.59151 0.59391
3.188385 -5.269645 0.5883445
4.31348 -2.833785 -0.7656515
4.16103 -2.507065 -1.36983
3.84507 -3.415325 -0.961763
3.40508 -4.694035 -0.1329535
2.96301 -5.24666 0.038962
2.736595 -5.65168 0.4741035
3.42014 -4.373025 -0.4845885
1.66461 0.8001865 -1.342655
1.922785 0.479942 -1.58661
0.924503 0.9037245 -2.0087
0 0.9673675 -2.19667
0.4758875 0.787379 -2.22417
1.536025 0.517934 -1.92546
2.551445 -0.189204 -1.972835
3.63287 -1.377 -2.5589
2.053215 -0.667198 -2.937925
0.9703175 -0.173566 -2.90646
0 -0.160269 -3.086205
0.458569 -0.806313 -3.26729
4.51394 -1.772735 -1.394965
3.71031 -2.631915 -1.981215
2.759635 -4.876545 -0.3550605
2.30202 -1.868055 -2.37667
0.259012 -2.08225 -2.320605
1.31253 -2.240115 -2.083985
2.302045 -2.435005 -1.811995
1.224942 -2.6466 -1.91973
0 -2.664275 -2.146075
1.92818 -3.103615 -1.55425
2.67395 -3.30016 -1.166342
1.299815 -3.44872 -1.720495
0.7007575 -3.742085 -1.912515
1.60544 -3.935885 -1.44379
2.51226 -4.155015 -0.6523535
1.140075 -4.15575 -1.72267
2.147455 -4.62007 -0.645968
0.1040805 -4.328505 -2.104065
0.1199665 -4.838855 -2.180145
0.6280565 -4.359015 -1.962535
0.6031495 -4.88105 -2.049005
1.48595 -4.60514 -1.401145
1.39618 -5.094645 -1.417735
1.955865 -5.036415 -0.53504
2.376565 -5.09294 -0.272134
0.0512755 -6.03088 -2.38203
0.723753 -6.03088 -2.08044
1.32273 -6.03088 -1.2063025
0.2912425 -6.03088 1.814055
0.7081955 -5.656675 2.11399
0.910809 -6.03088 1.88002
1.36113 -5.691735 1.653245
1.83932 -6.03088 1.256895
2.43531 -6.03088 0.4330585
2.158675 -6.03088 -0.1790655
-1.357125 -3.54128 1.789295
-1.102575 -4.745475 1.94214
-0.7855685 -5.11556 2.105925
-1.083455 -3.3289 1.873305
-1.75902 -3.540105 1.44347
-1.598065 -2.14344 1.24368
-1.098925 -2.18935 1.254995
-1.624145 -1.630345 1.0016145
-2.21536 -1.343165 0.484472
-2.682795 -2.162535 0.727766
-2.59487 -0.1318135 -0.669831
-2.248145 0.206039 -0.6834975
-2.273735 0.136667 -1.28348
-2.996855 -1.049914 -0.2123235
-3.24774 -0.603226 -1.158825
-2.926715 -1.879405 0.218677
-1.94504 -2.881275 1.08431
-2.740525 -3.52413 1.166255
-2.36956 -4.09655 1.19946
-2.130935 -4.555145 1.32973
-1.88929 -5.03111 1.391205
-2.48611 -5.46283 1.085185
-3.255375 -2.878535 0.567222
-3.906055 -1.0195675 -1.014223
-4.40756 -1.9143 -0.4032745
-4.163375 -2.52014 -0.1525705
-3.70349 -3.263535 0.321539
-3.831385 -3.99895 0.151935
-3.367515 -4.060185 0.6530905
-3.43841 -4.59151 0.59391
-2.895685 -5.546505 0.7918665
-3.188385 -5.269645 0.5883445
-0.789251 -3.73455 1.725445
-3.89269 -3.87343 -0.4510675
-4.31348 -2.833785 -0.7656515
-2.96301 -5.24666 0.038962
-0.924503 0.9037245 -2.0087
-1.2165425 0.517666 -2.069305
-2.418535 0.0104475 -1.68764
-4.296525 -1.218325 -1.526035
-3.63287 -1.377 -2.5589
-2.053215 -0.667198 -2.937925
-0.954743 -0.6517595 -3.20453
-4.39848 -1.584765 -1.760855
-3.99506 -2.317385 -1.867115
-3.658395 -3.073885 -1.518445
-3.40008 -3.963905 -0.819138
-2.759635 -4.876545 -0.3550605
-0.340909 -1.54022 -2.763405
-2.936005 -1.655325 -2.538715
-0.802407 -2.14966 -2.219495
-1.75117 -2.32053 -1.96384
-1.224942 -2.6466 -1.91973
-2.672955 -2.76409 -1.53558
-1.56911 -3.309305 -1.615675
-2.14362 -3.18011 -1.39617
-0.2752945 -3.23675 -2.019255
-1.87772 -3.853705 -1.231585
-2.59894 -3.781235 -0.8574215
-1.20168 -3.82546 -1.71318
-2.440495 -4.49109 -0.5028305
-1.103635 -4.45612 -1.735385
-1.047875 -4.962185 -1.78596
-1.48595 -4.60514 -1.401145
-1.39618 -5.094645 -1.417735
-1.83645 -4.75086 -0.824674
-1.641235 -5.3003 -0.780065
-1.32273 -6.03088 -1.2063025
-0.723753 -6.03088 -2.08044
-0.4310335 -6.03088 1.82466
-1.284745 -6.03088 1.656655
-1.61134 -5.73027 1.424265
-2.334 -6.03088 0.920518
-2.51001 -5.818025 0.1427035
-0.0512755 -5.49946 -2.30683
1.763845 0.884926 -0.766949
1.728775 0.5580255 -0.054805
2.030505 0.1900725 -0.1950145
1.63737 -0.069759 0.4878145
0.897216 -0.479732 0.951445
2.106045 -0.407887 0.3394445
1.781405 -1.1183 1.330245
1.367645 -1.27388 0.8430925
1.46241 1.0894965 -0.1936415
0.3020425 -0.4708105 0.745384
0.695256 -3.85857 1.71404
-1.83772 0.7370395 -0.6477625
-2.17326 0.1697485 -0.219844
-0.775643 -0.548609 1.028275
-2.106045 -0.407887 0.3394445
-2.035285 -0.994636 0.6871985
-1.781405 -1.1183 1.330245
-1.999175 -1.37409 0.8846725
-1.032835 -1.781705 1.17582
-1.31164 -0.0060855 0.6374445
-1.581415 0.5068785 0.1544575
-0.4008965 -0.630072 0.713807
2.7274 -2.955035 0.926047
-2.599895 -2.89145 0.9099515
0.801994 -1.435535 0.6033205
0.8697285 -1.0037935 0.432536
0.58171 -1.386595 1.068655
0.8949285 -1.63319 1.498695
0.0376815 -1.840555 1.080795
0.2158175 -2.60492 1.81658
0.4699935 -2.11298 1.87894
1.045985 -2.431715 1.69487
0.8745665 -3.497535 1.92708
0.46615 -3.131235 2.012745
-0.623918 -1.401735 0.684072
-0.8697285 -1.0037935 0.432536
-0.7247325 -1.3478 1.11902
-0.905313 -2.06843 1.63444
-0.137354 -2.21122 1.649915
-0.494149 -2.138885 1.97273
-0.6264005 -2.569595 1.97226
1.762845 1.730855 0.7033195
1.74986 2.107295 1.27727
0.1636075 3.536535 3.181605
0.6618815 3.6531 2.99059
1.23054 3.48332 2.612295
1.658495 3.12949 2.20342
1.843045 2.547115 1.962285
2.206845 1.754495 0.6245155
1.943695 1.227935 -0.1710955
2.34801 1.459735 0.270795
2.34228 2.06288 1.181945
2.353375 2.564615 1.872575
2.07761 2.910625 2.19031
2.144425 3.372575 2.359795
1.44455 4.1561 3.12034
0 4.034955 3.32453
0.4004435 4.475965 3.027
0.928396 4.438585 3.216845
1.73431 3.952775 2.571615
2.097765 4.050415 1.95924
1.088901 4.853325 2.71
0.560507 4.88129 2.532595
0.6657515 5.354435 1.678965
0 5.38337 1.56921
1.616355 4.6699 1.77485
2.533245 3.796935 1.1257335
2.020115 4.53938 0.2835485
2.054915 4.319735 1.47505
2.483265 3.45941 0.2949285
2.61923 2.911185 1.1717025
2.318575 2.94511 -0.126804
2.78518 2.128715 0.76877
2.56508 2.364195 0.072347
2.300985 2.30311 -0.5486635
1.266742 1.49468 -1.939465
0 1.78084 -2.41185
1.356855 2.220125 -2.04311
0.85978 3.52725 -1.81475
0 3.58405 -2.065345
1.269516 4.39087 -0.983253
0 4.959235 -0.9605445
0.767977 5.38876 0.0122815
2.12666 1.288545 -1.109165
-1.622345 1.58779 0.6535845
-1.490375 1.8617 1.01609
-0.4087775 3.672345 3.09743
-1.0099965 3.558135 2.91803
-1.39495 3.44621 2.420055
-1.766125 2.82938 2.099375
-2.0633 1.763415 0.647693
-1.943695 1.227935 -0.1710955
-2.531735 1.390025 0.0284305
-2.598885 1.666895 0.5084945
-2.06333 2.20264 1.31993
-2.15771 2.42103 1.82232
-2.144425 3.372575 2.359795
-1.636995 3.78016 2.747575
-1.44455 4.1561 3.12034
-0.6815395 4.59652 3.09631
-0.9852295 4.23303 3.20326
-2.5041 3.07362 1.63645
-1.973735 3.945915 2.211445
-1.38419 4.450785 2.626685
-0.6657515 5.354435 1.678965
-1.81388 4.41228 1.912095
-2.29978 3.734255 1.82074
-2.312295 3.99793 0.9899235
-1.69496 4.852665 0.467283
-2.59398 3.521405 1.394715
-2.608945 3.200675 0.947614
-2.294335 4.01158 0.19692
-2.69944 2.713095 0.7858485
-2.318575 2.94511 -0.126804
-2.78518 2.128715 0.76877
-2.56508 2.364195 0.072347
-2.310535 2.02601 -0.6386685
-1.266742 1.49468 -1.939465
-1.356855 2.220125 -2.04311
-1.285288 2.892135 -1.688425
-1.992035 3.056485 -0.967922
-1.313257 3.78766 -1.322492
-1.269516 4.39087 -0.983253
-0.767977 5.38876 0.0122815
0.302797 1.92336 2.525365
-0.735203 1.794265 2.13241
3 120 121 118 
3 127 125 135 
3 135 125 126 
3 126 128 137 
3 126 137 136 
3 128 16 137 
3 120 118 122 
3 120 122 134 
3 130 131 19 
3 128 139 16 
3 136 137 141 
3 136 141 138 
3 137 16 139 
3 140 139 17 
3 140 17 132 
3 140 132 144 
3 137 139 141 
3 141 139 140 
3 140 144 142 
3 147 149 148 
3 146 152 151 
3 157 156 158 
3 156 159 158 
3 15 127 160 
3 160 161 162 
3 164 163 165 
3 162 161 21 
3 138 166 20 
3 166 161 20 
3 166 148 167 
3 166 167 161 
3 149 167 148 
3 165 22 249 
3 165 23 22 
3 21 161 167 
3 21 167 169 
3 249 22 170 
3 22 23 171 
3 22 171 170 
3 23 169 171 
3 169 172 171 
3 169 167 172 
3 170 24 174 
3 170 171 173 
3 170 173 24 
3 171 172 175 
3 171 175 173 
3 172 176 175 
3 174 24 25 
3 24 173 26 
3 24 26 25 
3 173 177 26 
3 173 175 177 
3 175 176 27 
3 25 26 178 
3 26 177 178 
3 177 175 179 
3 175 27 28 
3 175 28 179 
3 27 176 180 
3 27 180 28 
3 178 177 181 
3 177 179 181 
3 178 181 185 
3 181 179 187 
3 179 182 187 
3 183 185 186 
3 183 186 184 
3 187 182 189 
3 182 190 189 
3 180 168 182 
3 182 168 190 
3 191 192 193 
3 191 193 194 
3 133 198 199 
3 133 199 152 
3 152 199 200 
3 30 193 188 
3 188 193 192 
3 188 192 29 
3 29 192 186 
3 186 192 191 
3 186 191 184 
3 184 191 275 
3 193 196 195 
3 208 35 206 
3 210 206 35 
3 37 38 216 
3 37 216 214 
3 229 219 218 
3 218 227 229 
3 40 222 221 
3 222 272 221 
3 225 38 37 
3 227 223 226 
3 228 229 227 
3 43 227 226 
3 228 227 43 
3 231 222 40 
3 245 47 235 
3 245 235 45 
3 47 48 235 
3 48 234 235 
3 236 274 231 
3 236 231 232 
3 158 237 157 
3 213 239 36 
3 238 52 51 
3 238 51 239 
3 238 53 52 
3 239 215 36 
3 240 215 239 
3 240 224 215 
3 241 240 239 
3 241 244 240 
3 51 242 241 
3 51 241 239 
3 52 242 51 
3 53 243 242 
3 53 242 52 
3 164 243 53 
3 165 243 164 
3 244 245 45 
3 244 45 46 
3 241 245 244 
3 245 246 47 
3 47 246 48 
3 249 243 165 
3 250 245 241 
3 170 251 249 
3 251 55 249 
3 251 252 56 
3 251 56 55 
3 252 254 250 
3 252 250 56 
3 254 246 245 
3 254 245 250 
3 174 57 251 
3 174 251 170 
3 57 253 251 
3 253 252 251 
3 253 256 252 
3 256 254 252 
3 174 257 57 
3 257 58 253 
3 257 253 57 
3 58 255 253 
3 255 256 253 
3 256 259 254 
3 257 59 58 
3 59 260 255 
3 59 255 58 
3 260 258 255 
3 258 256 255 
3 258 259 256 
3 60 59 257 
3 61 262 260 
3 263 265 264 
3 263 264 262 
3 265 267 266 
3 265 266 264 
3 259 247 246 
3 259 246 254 
3 261 247 259 
3 222 273 272 
3 231 273 222 
3 274 273 231 
3 267 268 63 
3 265 268 267 
3 263 269 268 
3 263 268 265 
3 62 269 263 
3 272 273 274 
3 270 272 63 
3 270 63 268 
3 279 281 278 
3 320 108 321 
3 322 321 106 
3 105 323 322 
3 328 329 323 
3 323 329 322 
3 320 332 319 
3 320 333 332 
3 330 336 335 
3 335 336 341 
3 333 334 337 
3 333 337 338 
3 338 339 340 
3 338 337 339 
3 339 337 341 
3 341 337 71 
3 344 341 336 
3 336 72 342 
3 336 342 344 
3 344 342 343 
3 344 343 73 
3 344 73 341 
3 72 346 342 
3 345 343 342 
3 348 346 327 
3 347 349 350 
3 349 75 350 
3 75 74 350 
3 156 157 352 
3 156 352 351 
3 352 353 351 
3 352 355 354 
3 352 354 353 
3 76 347 350 
3 356 77 354 
3 357 356 354 
3 357 354 355 
3 357 358 356 
3 356 358 343 
3 356 343 345 
3 343 358 73 
3 358 357 78 
3 78 340 339 
3 78 339 358 
3 358 339 341 
3 358 341 73 
3 353 359 351 
3 322 329 330 
3 319 362 93 
3 332 362 319 
3 364 92 363 
3 365 371 89 
3 366 79 369 
3 364 373 372 
3 364 363 373 
3 363 374 373 
3 363 376 374 
3 362 376 363 
3 372 382 377 
3 372 378 382 
3 373 378 372 
3 385 382 378 
3 383 385 378 
3 384 387 383 
3 378 381 81 
3 378 81 384 
3 378 384 383 
3 385 377 382 
3 383 386 385 
3 383 387 386 
3 385 388 377 
3 389 388 386 
3 386 387 389 
3 370 388 390 
3 390 79 370 
3 388 389 391 
3 391 390 388 
3 389 82 391 
3 388 385 386 
3 392 391 82 
3 368 369 84 
3 390 391 84 
3 390 84 369 
3 392 84 391 
3 369 79 390 
3 392 83 84 
3 393 352 157 
3 393 157 237 
3 393 394 352 
3 396 395 394 
3 396 394 392 
3 392 82 396 
3 394 395 355 
3 394 355 352 
3 396 397 395 
3 82 389 396 
3 395 397 355 
3 396 389 387 
3 387 398 397 
3 387 397 396 
3 355 397 398 
3 355 398 357 
3 398 399 357 
3 398 384 399 
3 387 384 398 
3 78 357 399 
3 399 380 340 
3 399 340 78 
3 384 81 380 
3 384 380 399 
3 393 392 394 
3 87 1 2 
3 98 5 6 
3 5 6 8 
3 5 7 8 
3 10 8 9 
3 7 8 9 
3 154 155 14 
3 155 124 14 
3 125 13 15 
3 13 14 15 
3 124 14 15 
3 127 125 15 
3 130 19 18 
3 144 132 18 
3 144 145 18 
3 131 133 19 
3 133 152 19 
3 152 146 19 
3 160 127 20 
3 127 135 20 
3 160 161 20 
3 135 138 20 
3 179 182 28 
3 180 182 28 
3 185 181 29 
3 185 186 29 
3 181 187 29 
3 187 188 29 
3 187 189 30 
3 187 188 30 
3 202 203 31 
3 201 31 33 
3 31 33 34 
3 219 220 34 
3 210 209 35 
3 224 215 36 
3 224 42 37 
3 214 36 37 
3 224 36 37 
3 40 221 39 
3 221 220 39 
3 229 219 39 
3 230 229 39 
3 220 219 39 
3 244 240 42 
3 244 46 42 
3 224 240 42 
3 225 37 42 
3 234 228 43 
3 235 234 43 
3 203 31 44 
3 204 31 44 
3 236 232 49 
3 261 247 49 
3 261 248 49 
3 393 237 50 
3 213 239 50 
3 274 236 54 
3 267 63 54 
3 266 261 54 
3 267 266 54 
3 248 261 54 
3 61 260 59 
3 178 185 60 
3 185 183 60 
3 174 25 60 
3 25 178 60 
3 257 174 60 
3 263 262 61 
3 62 263 61 
3 272 274 63 
3 274 54 63 
3 279 281 64 
3 286 67 66 
3 286 67 68 
3 309 308 69 
3 330 336 72 
3 76 350 74 
3 353 359 74 
3 325 326 74 
3 276 154 74 
3 154 359 74 
3 353 354 76 
3 77 354 76 
3 345 347 76 
3 77 356 76 
3 356 345 76 
3 353 74 76 
3 332 333 80 
3 333 338 80 
3 338 340 80 
3 340 380 80 
3 393 392 83 
3 393 50 83 
3 368 367 83 
3 368 84 83 
3 295 296 85 
3 0 1 88 
3 94 90 91 
3 3 90 91 
3 362 93 92 
3 363 362 92 
3 3 92 93 
3 86 0 96 
3 86 85 96 
3 0 1 96 
3 1 2 96 
3 361 2 96 
3 360 95 96 
3 98 5 97 
3 279 64 97 
3 317 9 99 
3 7 5 99 
3 7 9 99 
3 284 4 99 
3 4 97 99 
3 5 97 99 
3 102 8 101 
3 6 8 101 
3 102 8 104 
3 103 8 104 
3 87 1 104 
3 1 88 104 
3 100 6 104 
3 98 6 104 
3 100 6 104 
3 98 97 104 
3 6 101 104 
3 102 101 104 
3 106 322 105 
3 107 11 106 
3 11 105 106 
3 321 108 106 
3 108 106 107 
3 109 93 107 
3 319 320 108 
3 319 93 108 
3 93 107 108 
3 91 104 110 
3 400 91 110 
3 103 8 110 
3 8 10 110 
3 103 104 110 
3 112 113 111 
3 308 113 111 
3 308 69 111 
3 12 111 112 
3 286 68 113 
3 116 12 113 
3 195 68 113 
3 12 112 113 
3 12 111 115 
3 133 131 117 
3 116 12 117 
3 195 196 117 
3 195 113 117 
3 116 113 117 
3 120 134 121 
3 129 114 122 
3 130 18 123 
3 132 18 123 
3 132 114 123 
3 114 115 123 
3 12 115 123 
3 15 160 124 
3 119 121 126 
3 125 13 126 
3 128 121 126 
3 111 115 129 
3 114 115 129 
3 131 117 130 
3 12 117 130 
3 12 123 130 
3 126 136 135 
3 136 138 135 
3 142 143 140 
3 143 141 140 
3 143 147 141 
3 138 166 141 
3 147 148 141 
3 166 148 141 
3 143 147 142 
3 147 149 142 
3 153 149 142 
3 150 153 142 
3 19 18 145 
3 146 19 145 
3 144 142 145 
3 142 150 145 
3 146 151 145 
3 151 150 145 
3 172 167 149 
3 172 176 149 
3 190 168 151 
3 152 200 151 
3 150 153 151 
3 153 168 151 
3 176 180 153 
3 180 168 153 
3 176 149 153 
3 156 159 154 
3 155 159 154 
3 156 351 154 
3 351 359 154 
3 159 163 158 
3 163 164 158 
3 164 53 158 
3 53 238 158 
3 155 124 159 
3 160 162 159 
3 162 163 159 
3 160 124 159 
3 163 165 162 
3 165 23 162 
3 169 23 162 
3 21 169 162 
3 184 275 183 
3 61 59 183 
3 60 59 183 
3 275 269 183 
3 269 62 183 
3 62 61 183 
3 270 268 194 
3 268 269 194 
3 269 275 194 
3 275 191 194 
3 193 195 194 
3 195 68 194 
3 193 197 196 
3 197 117 196 
3 198 133 197 
3 193 198 197 
3 133 117 197 
3 189 190 200 
3 199 198 200 
3 193 198 200 
3 189 30 200 
3 193 30 200 
3 190 151 200 
3 68 44 203 
3 270 194 203 
3 68 194 203 
3 31 201 204 
3 218 219 205 
3 218 32 205 
3 33 34 205 
3 219 34 205 
3 33 201 205 
3 209 293 208 
3 209 35 208 
3 213 36 211 
3 211 212 213 
3 36 211 214 
3 210 209 216 
3 209 214 216 
3 205 32 217 
3 205 201 217 
3 206 210 217 
3 216 41 217 
3 210 216 217 
3 223 227 218 
3 220 34 221 
3 202 31 221 
3 31 34 221 
3 38 216 223 
3 41 216 223 
3 225 226 223 
3 225 38 223 
3 41 217 223 
3 45 235 225 
3 46 45 225 
3 46 42 225 
3 235 43 225 
3 43 225 226 
3 231 40 230 
3 232 231 230 
3 40 39 230 
3 228 229 230 
3 234 228 230 
3 234 49 230 
3 232 49 230 
3 67 66 233 
3 67 68 233 
3 44 68 233 
3 204 44 233 
3 204 70 233 
3 246 247 234 
3 246 48 234 
3 247 49 234 
3 248 54 236 
3 248 49 236 
3 237 50 238 
3 158 237 238 
3 239 50 238 
3 250 241 242 
3 249 55 242 
3 249 243 242 
3 55 56 242 
3 56 250 242 
3 261 259 258 
3 262 264 258 
3 262 260 258 
3 264 266 258 
3 266 261 258 
3 221 272 271 
3 270 272 271 
3 203 202 271 
3 202 221 271 
3 203 270 271 
3 325 74 276 
3 278 13 276 
3 154 14 276 
3 13 14 276 
3 278 276 277 
3 279 278 277 
3 279 97 277 
3 4 97 277 
3 64 97 280 
3 97 104 280 
3 64 65 281 
3 65 119 281 
3 119 126 281 
3 13 126 281 
3 13 278 281 
3 118 121 283 
3 282 65 283 
3 121 119 283 
3 65 119 283 
3 301 300 283 
3 64 65 283 
3 64 280 283 
3 282 65 283 
3 277 4 284 
3 317 99 284 
3 324 326 284 
3 326 325 284 
3 325 276 284 
3 276 277 284 
3 0 88 285 
3 88 104 285 
3 104 280 285 
3 367 96 287 
3 367 83 287 
3 96 85 287 
3 296 85 287 
3 50 83 287 
3 212 213 287 
3 50 213 287 
3 212 211 288 
3 211 214 288 
3 212 287 288 
3 291 209 290 
3 209 214 290 
3 214 288 290 
3 293 209 292 
3 209 291 292 
3 208 206 294 
3 207 206 294 
3 86 0 295 
3 86 85 295 
3 0 285 295 
3 285 289 295 
3 291 290 295 
3 287 288 296 
3 288 290 296 
3 290 295 296 
3 134 121 298 
3 128 121 298 
3 134 122 298 
3 128 139 298 
3 17 139 298 
3 17 132 298 
3 114 122 298 
3 114 132 298 
3 223 218 299 
3 218 32 299 
3 32 217 299 
3 217 223 299 
3 280 283 301 
3 285 280 301 
3 285 297 302 
3 285 301 302 
3 300 301 302 
3 122 118 303 
3 118 283 303 
3 300 283 303 
3 300 302 303 
3 309 69 305 
3 69 305 306 
3 69 111 307 
3 111 129 307 
3 122 129 307 
3 122 303 307 
3 69 306 307 
3 286 66 308 
3 286 113 308 
3 311 302 310 
3 312 302 310 
3 289 285 311 
3 297 285 311 
3 297 302 311 
3 293 208 311 
3 292 291 311 
3 293 292 311 
3 208 294 311 
3 289 295 311 
3 291 295 311 
3 294 310 311 
3 302 304 312 
3 294 310 312 
3 316 70 313 
3 204 70 313 
3 201 204 313 
3 207 206 313 
3 201 217 313 
3 206 217 313 
3 207 294 313 
3 294 312 313 
3 304 312 313 
3 315 313 314 
3 304 313 314 
3 303 302 314 
3 302 304 314 
3 306 305 314 
3 303 307 314 
3 306 307 314 
3 70 233 316 
3 315 313 316 
3 315 314 316 
3 66 233 316 
3 309 305 316 
3 309 308 316 
3 66 308 316 
3 305 314 316 
3 324 327 317 
3 318 327 317 
3 324 284 317 
3 323 105 318 
3 328 323 318 
3 9 10 318 
3 105 11 318 
3 11 110 318 
3 10 110 318 
3 9 317 318 
3 321 331 320 
3 333 334 320 
3 334 331 320 
3 75 349 324 
3 349 348 324 
3 348 327 324 
3 75 74 324 
3 326 74 324 
3 329 330 328 
3 330 72 328 
3 327 346 328 
3 346 72 328 
3 327 318 328 
3 341 71 331 
3 341 335 331 
3 71 337 331 
3 337 334 331 
3 362 376 332 
3 376 375 332 
3 375 80 332 
3 331 321 335 
3 322 321 335 
3 322 330 335 
3 342 345 346 
3 345 347 346 
3 349 347 346 
3 348 349 346 
3 361 96 360 
3 366 95 360 
3 366 79 361 
3 366 360 361 
3 89 371 361 
3 370 79 361 
3 365 89 364 
3 89 90 364 
3 92 3 364 
3 372 365 364 
3 3 90 364 
3 372 377 365 
3 368 367 366 
3 369 368 366 
3 367 96 366 
3 95 96 366 
3 388 377 370 
3 371 361 370 
3 377 365 371 
3 377 370 371 
3 380 80 375 
3 379 381 378 
3 373 374 378 
3 374 379 378 
3 374 376 379 
3 81 380 379 
3 381 81 379 
3 376 375 379 
3 380 375 379 
3 107 11 400 
3 3 91 400 
3 109 93 400 
3 3 93 400 
3 109 107 400 
3 11 110 400 
3 91 94 401 
3 87 2 401 
3 89 90 401 
3 94 90 401 
3 91 104 401 
3 87 104 401 
3 89 361 401 
3 2 361 401 
